# xmcd
#
# Track frame offsets:
#	150
#	20229
#	41322
#	63235
#	81275
#	98350
#	122121
#	140706
#	165656
#	188023
#	207968
#	230719
#
# Disc length: 3260 seconds
#
# Revision: 1
# Processed by: cddbd v1.5.2PL0 Copyright (c) Steve Scherf et al.
# Submitted via: EZCDAudioConverter 8.0.2.1
#
DISCID=a00cba0c
DTITLE=Quốc Khanh - Chỉ Chừng Đó Thôi
DYEAR=2011
DGENRE=
TTITLE0=Quốc Khanh - Chuyện tình buồn
TTITLE1=Quốc Khanh - Nói với tôi một lời
TTITLE2=Quốc Khanh - Chỉ Chừng Đó Thôi
TTITLE3=Quốc Khanh - LK Đừng nhắc đến tình yêu, Trái tim về đâu
TTITLE4=Quốc Khanh, Ánh Minh - Kim
TTITLE5=Quốc Khanh - LK Sài gòn thứ bảy, Nỗi lòng người đi
TTITLE6=Quốc Khanh, Thiên Kim - Tình chết theo mùa đông
TTITLE7=Quốc Khanh - Mẹ ơi
TTITLE8=Quốc Khanh - Một chuyến bay đêm
TTITLE9=Quốc Khanh, Mai Thanh Sơn and Đoàn Phi - Nỗi nhớ thiên thu
TTITLE10=Quốc Khanh - Mùa xuân của chị
TTITLE11=Quốc Khanh, Hà Thanh Xuân - Thiên duyên thiền định
EXTD=
EXTT0=
EXTT1=
EXTT2=
EXTT3=
EXTT4=
EXTT5=
EXTT6=
EXTT7=
EXTT8=
EXTT9=
EXTT10=
EXTT11=
PLAYORDER=
